<svg xmlns="http://www.w3.org/2000/svg" xmlns:xlink="http://www.w3.org/1999/xlink" width="321" height="591.994" viewBox="0 0 321 591.994">
  <defs>
    <linearGradient id="linear-gradient" x1="0.5" x2="0.465" y2="0.868" gradientUnits="objectBoundingBox">
      <stop offset="0" stop-color="#505cfd" stop-opacity="0"/>
      <stop offset="1" stop-color="#505cfd"/>
    </linearGradient>
    <linearGradient id="linear-gradient-2" x1="0.5" x2="0.5" y2="1" gradientUnits="objectBoundingBox">
      <stop offset="0" stop-color="#fff" stop-opacity="0.039"/>
      <stop offset="1" stop-color="#fff" stop-opacity="0"/>
    </linearGradient>
  </defs>
  <g id="Group_7646" data-name="Group 7646" transform="translate(-21357 -12279.508)">
    <path id="Subtraction_78" data-name="Subtraction 78" d="M319.96,636.359H0V134.614a283.217,283.217,0,0,0,61.86-6.693C88.7,121.766,111.324,111.5,129.1,97.4c72.09-52.818,136.579-52.818,175.109-52.818H307.2l.035.005H310.1c3.035,0,6.549,0,9.858-.059V636.358Z" transform="translate(21357 12234.983)" fill="#505cfd"/>
    <path id="Subtraction_15" data-name="Subtraction 15" d="M-20860.857-12536.218a109.442,109.442,0,0,1-21.895-2.207,108.1,108.1,0,0,1-20.393-6.331,108.666,108.666,0,0,1-18.455-10.017,109.4,109.4,0,0,1-16.078-13.267,109.149,109.149,0,0,1-13.266-16.079,108.546,108.546,0,0,1-10.018-18.455,107.746,107.746,0,0,1-6.33-20.393,109.393,109.393,0,0,1-2.209-21.895,109.393,109.393,0,0,1,2.209-21.895,107.746,107.746,0,0,1,6.33-20.393,108.546,108.546,0,0,1,10.018-18.455,109.149,109.149,0,0,1,13.266-16.079,109.4,109.4,0,0,1,16.078-13.267,108.666,108.666,0,0,1,18.455-10.017,108.1,108.1,0,0,1,20.393-6.331,109.457,109.457,0,0,1,21.895-2.207,109.137,109.137,0,0,1,26.35,3.218,107.987,107.987,0,0,1,24.008,9.136v192.578a108.024,108.024,0,0,1-24.008,9.136A109.137,109.137,0,0,1-20860.857-12536.218Z" transform="translate(42488 25131)" fill="none" stroke="#fff" stroke-width="1" opacity="0.2"/>
    <rect id="Rectangle_112" data-name="Rectangle 112" width="319.826" height="227.43" transform="translate(21357.061 12412.789)" fill="url(#linear-gradient)"/>
    <ellipse id="Ellipse_803" data-name="Ellipse 803" cx="58.477" cy="58.478" rx="58.477" ry="58.478" transform="translate(21368.07 12744.438)" fill="url(#linear-gradient-2)"/>
    <path id="Subtraction_17" data-name="Subtraction 17" d="M-20866.723-12657.936h-89.6a58.223,58.223,0,0,1-10.039-17.238,58.251,58.251,0,0,1-3.639-20.349,58.114,58.114,0,0,1,4.6-22.763,58.261,58.261,0,0,1,12.533-18.589,58.275,58.275,0,0,1,18.588-12.532,58.109,58.109,0,0,1,22.764-4.6,58.092,58.092,0,0,1,22.762,4.6,58.261,58.261,0,0,1,18.586,12.532,58.244,58.244,0,0,1,12.531,18.589,58.114,58.114,0,0,1,4.6,22.763,58.251,58.251,0,0,1-3.639,20.349,58.284,58.284,0,0,1-10.037,17.238Z" transform="translate(42439 25529.438)" fill="url(#linear-gradient-2)"/>
    <path id="Subtraction_16" data-name="Subtraction 16" d="M-20930.283-12674.571a39.479,39.479,0,0,1-15.459-3.12,39.569,39.569,0,0,1-12.625-8.51,39.55,39.55,0,0,1-8.512-12.624,39.425,39.425,0,0,1-3.123-15.459,39.427,39.427,0,0,1,3.123-15.46,39.554,39.554,0,0,1,8.512-12.625,39.559,39.559,0,0,1,12.625-8.512,39.462,39.462,0,0,1,15.459-3.121,39.8,39.8,0,0,1,10.344,1.361,39.505,39.505,0,0,1,9.328,3.847v69.016a39.57,39.57,0,0,1-9.328,3.846A39.8,39.8,0,0,1-20930.283-12674.571Z" transform="translate(42587.613 25534.932)" fill="url(#linear-gradient-2)"/>
  </g>
</svg>
