<svg xmlns="http://www.w3.org/2000/svg" xmlns:xlink="http://www.w3.org/1999/xlink" width="1227.322" height="909.208" viewBox="0 0 1227.322 909.208">
  <defs>
    <linearGradient id="linear-gradient" x1="0.5" x2="0.5" y2="1" gradientUnits="objectBoundingBox">
      <stop offset="0" stop-opacity="0.031"/>
      <stop offset="1" stop-opacity="0"/>
    </linearGradient>
    <linearGradient id="linear-gradient-2" x1="0.5" x2="0.5" y2="1" gradientUnits="objectBoundingBox">
      <stop offset="0" stop-opacity="0.039"/>
      <stop offset="1" stop-color="#fff" stop-opacity="0"/>
    </linearGradient>
    <linearGradient id="linear-gradient-3" x1="0.5" x2="0.5" y2="1" gradientUnits="objectBoundingBox">
      <stop offset="0" stop-opacity="0.039"/>
      <stop offset="1" stop-opacity="0"/>
    </linearGradient>
  </defs>
  <g id="Group_7648" data-name="Group 7648" transform="translate(-20835.678 -15190.498)">
    <rect id="Rectangle_400" data-name="Rectangle 400" width="1227" height="907" transform="translate(20836 15191)" fill="#f8f8f8"/>
    <path id="Subtraction_49" data-name="Subtraction 49" d="M-17832.543-12510.065a300.117,300.117,0,0,1-61.508-5.976,355.887,355.887,0,0,1-39.035-10.817c-12.848-4.28-25.594-9.074-37.918-13.711l-.01,0-.086-.032c-19.416-7.3-39.494-14.855-60.029-20.437a279.833,279.833,0,0,0-31.461-6.749,218.843,218.843,0,0,0-33.143-2.558,209.494,209.494,0,0,0-32.621,2.571,230.8,230.8,0,0,0-34.963,8.458c-4.148,1.346-8.344,2.708-12.633,4.1l-4.553,1.479-4.8,1.561-.014,0c-34.162,11.1-54.783,17.807-69.611,22.008-14.439,4.088-22.721,5.607-30.551,5.607a104.885,104.885,0,0,1-14.795-1.346c-11.459-1.618-28.094-5.509-42.252-14.857-15.584-10.288-24.756-24.842-27.262-43.256a29.459,29.459,0,0,0-5.482-13.423,45.645,45.645,0,0,0-11.6-10.794,90.167,90.167,0,0,0-16.5-8.5,170.578,170.578,0,0,0-20.2-6.551c-12.812-3.376-28.07-6.206-46.645-8.651-16.182-2.128-32.492-3.655-46.881-5l-.053-.009c-2.713-.252-5.182-.483-8-.751a52.583,52.583,0,0,1-14.857-3.36,30.707,30.707,0,0,1-9.6-6.018c-5.037-4.706-7.736-10.616-10.348-16.332l0-.008-.018-.037-.057-.124a85.612,85.612,0,0,0-4.437-8.769,30.1,30.1,0,0,0-6.5-7.726,29.256,29.256,0,0,0-10.547-5.428,58.568,58.568,0,0,0-16.643-2.053,130.544,130.544,0,0,0-16.514,1.175c-6.377.817-13.537,2.087-21.281,3.775a292.56,292.56,0,0,1-33.859,5.244c-10.781,1.043-22.068,1.571-33.547,1.571a432.815,432.815,0,0,1-55.82-3.78c-15.492-2.032-31.244-4.858-46.818-8.4l-.006-65.532h1226.326v154.073a425.216,425.216,0,0,1-49.756,33.326c-11.848,6.816-24.406,13.343-37.328,19.4-13.92,6.524-28.615,12.675-43.676,18.279a.022.022,0,0,1-.01.009,91.953,91.953,0,0,1-10.129,3.144c-5.586,1.538-14.736,3.875-26.6,6.277-12.854,2.6-25.893,4.671-38.758,6.154A408.71,408.71,0,0,1-17832.543-12510.065Z" transform="translate(39641.68 27944)" opacity="0.03"/>
    <path id="Subtraction_51" data-name="Subtraction 51" d="M-18530.5-12363.8h0v-1.705h-151.225l-.584-.245-.021-.009-.295-.123a201.718,201.718,0,0,1-34.311-18.624,203.285,203.285,0,0,1-29.9-24.665,203.179,203.179,0,0,1-24.664-29.895,202.125,202.125,0,0,1-18.625-34.312,200.61,200.61,0,0,1-11.768-37.918A203.089,203.089,0,0,1-18806-12552a203.116,203.116,0,0,1,4.109-40.712,200.7,200.7,0,0,1,11.768-37.918,202.063,202.063,0,0,1,18.625-34.312,203.179,203.179,0,0,1,24.664-29.895,203.289,203.289,0,0,1,29.9-24.665,201.662,201.662,0,0,1,34.311-18.623,200.659,200.659,0,0,1,37.918-11.771,203.564,203.564,0,0,1,40.713-4.1,203.743,203.743,0,0,1,38.2,3.606,200.929,200.929,0,0,1,35.793,10.378v376.022l-.029.011-.234.092-.234.093Z" transform="translate(40592.5 28463.502)" fill="url(#linear-gradient)"/>
    <path id="Subtraction_52" data-name="Subtraction 52" d="M-18587.141-12625.5h-215.717a110.427,110.427,0,0,1-1.643-19,110.393,110.393,0,0,1,2.225-22.067,108.8,108.8,0,0,1,6.381-20.554,109.578,109.578,0,0,1,10.1-18.6,110.192,110.192,0,0,1,13.371-16.205,110.269,110.269,0,0,1,16.205-13.37,109.38,109.38,0,0,1,18.6-10.1,108.869,108.869,0,0,1,20.555-6.38A110.226,110.226,0,0,1-18695-12754a110.259,110.259,0,0,1,22.068,2.225,108.992,108.992,0,0,1,20.553,6.38,109.4,109.4,0,0,1,18.6,10.1,110.269,110.269,0,0,1,16.205,13.37,110.192,110.192,0,0,1,13.371,16.205,109.578,109.578,0,0,1,10.1,18.6,108.656,108.656,0,0,1,6.379,20.554,110.251,110.251,0,0,1,2.227,22.067,110.6,110.6,0,0,1-1.641,19Z" transform="translate(40263 28723.5)" fill="url(#linear-gradient-2)"/>
    <path id="Subtraction_53" data-name="Subtraction 53" d="M-18649.354-12688.5h-152.293a76.3,76.3,0,0,1,8.809-25.874,77,77,0,0,1,16.863-20.778,76.712,76.712,0,0,1,23.064-13.826,76.709,76.709,0,0,1,27.412-5.021,76.706,76.706,0,0,1,27.41,5.021,76.674,76.674,0,0,1,23.063,13.826,77,77,0,0,1,16.863,20.778,76.3,76.3,0,0,1,8.809,25.873Z" transform="translate(40549 28786.5)" fill="url(#linear-gradient-3)"/>
  </g>
</svg>
