<svg xmlns="http://www.w3.org/2000/svg" width="184.537" height="99.978" viewBox="0 0 184.537 99.978">
  <path id="Path_2367" data-name="Path 2367" d="M40.565,90.85q-19.241,0-29.392-11.293T1.022,43.571v-52.7H23.445V45.83q0,14.455,4.394,20.176t12.727,5.722q8.333,0,12.878-5.722T57.989,45.83V-9.128H79.5v52.7q0,24.693-9.924,35.986T40.565,90.85Zm62.421-1.807L130.409,38.6,104.653-9.128H129.5l8.636,18.52q1.667,3.463,3.333,7.3t3.788,8.507h.606q1.667-4.668,3.257-8.507t3.106-7.3L160.1-9.128h23.787l-25.6,48.784,27.271,49.387H160.711l-9.848-20.026q-1.818-3.915-3.56-7.754t-3.863-8.357h-.606q-1.667,4.517-3.333,8.357t-3.333,7.754l-9.242,20.026Z" transform="translate(-1.021 9.128)" fill="#404044" opacity="0.04"/>
</svg>
