<svg xmlns="http://www.w3.org/2000/svg" xmlns:xlink="http://www.w3.org/1999/xlink" width="1289.5" height="780.502" viewBox="0 0 1289.5 780.502">
  <defs>
    <linearGradient id="linear-gradient" x1="0.5" y1="1" x2="0.5" gradientUnits="objectBoundingBox">
      <stop offset="0" stop-color="#fff" stop-opacity="0.031"/>
      <stop offset="1" stop-color="#fff" stop-opacity="0"/>
    </linearGradient>
    <linearGradient id="linear-gradient-2" x1="0.5" y1="1" x2="0.5" gradientUnits="objectBoundingBox">
      <stop offset="0" stop-color="#fff" stop-opacity="0.051"/>
      <stop offset="1" stop-color="#fff" stop-opacity="0"/>
    </linearGradient>
    <linearGradient id="linear-gradient-3" y1="0" y2="1" xlink:href="#linear-gradient"/>
    <linearGradient id="linear-gradient-4" x1="0.5" y1="-0.302" x2="0.5" y2="0.693" gradientUnits="objectBoundingBox">
      <stop offset="0" stop-color="#505cfd" stop-opacity="0"/>
      <stop offset="1" stop-color="#505cfd" stop-opacity="0.741"/>
    </linearGradient>
    <linearGradient id="linear-gradient-6" x1="0.5" y1="1" x2="0.5" gradientUnits="objectBoundingBox">
      <stop offset="0" stop-color="#fff" stop-opacity="0.039"/>
      <stop offset="1" stop-color="#fff" stop-opacity="0"/>
    </linearGradient>
    <linearGradient id="linear-gradient-8" x1="0.5" x2="0.5" y2="1" gradientUnits="objectBoundingBox">
      <stop offset="0" stop-color="#505cfd" stop-opacity="0.502"/>
      <stop offset="0.29" stop-color="#505cfd" stop-opacity="0.29"/>
      <stop offset="1" stop-color="#505cfd"/>
    </linearGradient>
    <linearGradient id="linear-gradient-9" y1="0" y2="1" xlink:href="#linear-gradient-6"/>
  </defs>
  <g id="Group_7644" data-name="Group 7644" transform="translate(-22444 -16726.998)">
    <rect id="Rectangle_419" data-name="Rectangle 419" width="1289" height="779.999" transform="translate(22444.143 16726.998)" fill="#505cfd"/>
    <ellipse id="Ellipse_5027" data-name="Ellipse 5027" cx="81.783" cy="81.783" rx="81.783" ry="81.783" transform="translate(22446.07 17146.965) rotate(-60)" fill="url(#linear-gradient)"/>
    <g id="Subtraction_66" data-name="Subtraction 66" transform="translate(22420 16725)" fill="none" opacity="0.03">
      <path d="M74.326,106.3A70.237,70.237,0,0,1,24.5,85.667c-.167-.167-.336-.338-.5-.507V2H136.147a70.391,70.391,0,0,1-12,83.668A70.233,70.233,0,0,1,74.326,106.3Z" stroke="none"/>
      <path d="M 74.32561492919922 105.3044128417969 C 83.34625244140625 105.3044128417969 92.1407470703125 103.593376159668 100.4646148681641 100.2189254760742 C 109.081184387207 96.72389221191406 116.8117523193359 91.59014129638672 123.4416656494141 84.96024322509766 C 128.9061279296875 79.49664306640625 133.3826141357422 73.23789215087891 136.7466888427734 66.35796356201172 C 139.9972229003906 59.70787811279297 142.15234375 52.60091018676758 143.1521606445313 45.23459625244141 C 144.1405792236328 37.9469108581543 143.9748992919922 30.5845775604248 142.6597442626953 23.3521614074707 C 141.3606262207031 16.21047973632813 138.9698181152344 9.366110801696777 135.5514373779297 2.999811172485352 L 25.00029945373535 2.999811172485352 L 25.00029945373535 84.75009918212891 C 25.07016372680664 84.820556640625 25.14003372192383 84.89072418212891 25.20956611633301 84.96025848388672 C 31.84108352661133 91.59089660644531 39.57196426391602 96.72464752197266 48.18735122680664 100.218864440918 C 56.510498046875 103.593391418457 65.30467987060547 105.3044128417969 74.32561492919922 105.3044128417969 M 74.32561492919922 106.3044128417969 C 65.17526245117188 106.3044128417969 56.25466537475586 104.5687255859375 47.81161499023438 101.1455917358398 C 39.07144927978516 97.60076141357422 31.22913360595703 92.39314270019531 24.50249862670898 85.66741180419922 C 24.33536529541016 85.50025939941406 24.1663990020752 85.32959747314453 24.00029945373535 85.16016387939453 L 24.00029945373535 1.999811053276062 L 136.1466217041016 1.999811053276062 C 139.7678375244141 8.607844352722168 142.2899017333984 15.7314281463623 143.6436004638672 23.17319488525391 C 144.9775848388672 30.5091609954834 145.1456604003906 37.97690963745117 144.1430969238281 45.36899566650391 C 143.1288604736328 52.84144592285156 140.9426116943359 60.05091094970703 137.6450958251953 66.79711151123047 C 134.2323303222656 73.77662658691406 129.6914825439453 80.12552642822266 124.1487197875977 85.66741180419922 C 117.4237670898438 92.39234161376953 109.5817489624023 97.5999755859375 100.8404998779297 101.1455917358398 C 92.39655303955078 104.5687255859375 83.47564697265625 106.3044128417969 74.32561492919922 106.3044128417969 Z" stroke="none" fill="#fff"/>
    </g>
    <ellipse id="Ellipse_5029" data-name="Ellipse 5029" cx="54.283" cy="54.283" rx="54.283" ry="54.283" transform="matrix(-0.259, -0.966, 0.966, -0.259, 23166.469, 16916.078)" fill="url(#linear-gradient-2)"/>
    <g id="Group_8207" data-name="Group 8207">
      <path id="Path_2423" data-name="Path 2423" d="M154.986,312.5a156.129,156.129,0,0,1-31.235-3.149,154.135,154.135,0,0,1-55.419-23.32A155.438,155.438,0,0,1,12.18,217.838a154.207,154.207,0,0,1-9.031-29.092,156.081,156.081,0,0,1,4.612-79.8A155.349,155.349,0,0,1,104.31,11H205.663a154.824,154.824,0,0,1,104.31,146.511,156.129,156.129,0,0,1-3.149,31.235,154.137,154.137,0,0,1-23.32,55.419,155.44,155.44,0,0,1-68.189,56.152,154.2,154.2,0,0,1-29.092,9.031A156.129,156.129,0,0,1,154.986,312.5Z" transform="translate(23271.209 16716)" fill="url(#linear-gradient-3)"/>
      <path id="Path_2424" data-name="Path 2424" d="M0,0H564V237H0Z" transform="translate(23099.143 16873.998)" fill="url(#linear-gradient-4)"/>
      <path id="Path_2422" data-name="Path 2422" d="M72.04,0h0ZM37.845,29.126h0Zm-20.2,29.125h0ZM5.68,87.376h0ZM.054,116.5h0ZM0,145.627H0Zm5.509,29.125h0Zm11.822,29.126h0ZM37.337,233h0Zm33.784,29.126h0Z" transform="translate(23581.832 17004.867) rotate(180)" fill="rgba(0,0,0,0)" stroke="#fff" stroke-width="8" opacity="0.03"/>
    </g>
    <ellipse id="Ellipse_5031" data-name="Ellipse 5031" cx="47.283" cy="47.283" rx="47.283" ry="47.283" transform="matrix(0.966, -0.259, 0.259, 0.966, 22535.572, 16752.006)" fill="url(#linear-gradient)"/>
    <path id="Subtraction_68" data-name="Subtraction 68" d="M597.277,291.765h-.008a130.439,130.439,0,0,1-29.487-3.683,209.509,209.509,0,0,1-30.124-9.705c-17.679-7.106-36.7-17.013-56.526-29.447-17.642-11.063-32.673-22.119-42.176-29.446-10.332-7.966-16.5-13.331-16.562-13.384-.762.082-18.966,2.01-44.4,2.01a438.028,438.028,0,0,1-49.582-2.67c-19.694-2.258-37.334-5.938-52.428-10.94H719.269A121.1,121.1,0,0,1,708,218.429,146.508,146.508,0,0,1,690.221,241.8c-14.829,15.988-33.839,30.035-56.5,41.752a71.419,71.419,0,0,1-17.532,6.267A88.687,88.687,0,0,1,597.277,291.765Z" transform="translate(22355 16533)" fill="url(#linear-gradient-6)"/>
    <g id="Group_8208" data-name="Group 8208">
      <g id="Path_2420" data-name="Path 2420" transform="translate(22647.143 16974.516)" fill="none" opacity="0.07">
        <path d="M164.96,0A164.96,164.96,0,1,1,0,164.96,164.96,164.96,0,0,1,164.96,0Z" stroke="none"/>
        <path d="M 164.96044921875 1 C 153.8352813720703 1 142.7174072265625 2.120758056640625 131.9156646728516 4.331085205078125 C 121.3889007568359 6.48516845703125 111.0344543457031 9.699371337890625 101.1399536132813 13.88436889648438 C 91.42481994628906 17.9935302734375 82.05453491210938 23.07958984375 73.28927612304688 29.001220703125 C 64.60711669921875 34.86679077148438 56.44268798828125 41.60305786132813 49.02291870117188 49.02279663085938 C 41.60311889648438 56.44259643554688 34.86685180664063 64.60696411132813 29.00128173828125 73.2891845703125 C 23.07962036132813 82.05438232421875 17.99356079101563 91.42466735839844 13.8843994140625 101.1397552490234 C 9.699371337890625 111.0342559814453 6.485198974609375 121.388671875 4.33111572265625 131.9153747558594 C 2.1207275390625 142.7171325683594 1 153.8350067138672 1 164.9601287841797 C 1 176.0852508544922 2.1207275390625 187.203125 4.33111572265625 198.0048828125 C 6.485198974609375 208.5315856933594 9.699371337890625 218.8860015869141 13.8843994140625 228.7805023193359 C 17.99356079101563 238.4955902099609 23.07962036132813 247.8658752441406 29.00128173828125 256.631103515625 C 34.86685180664063 265.3132934570313 41.60311889648438 273.4776611328125 49.02291870117188 280.8974609375 C 56.44268798828125 288.3171997070313 64.60711669921875 295.053466796875 73.28927612304688 300.9190368652344 C 82.05453491210938 306.8406677246094 91.42481994628906 311.9266967773438 101.1399536132813 316.035888671875 C 111.0344543457031 320.2208862304688 121.3889007568359 323.4350891113281 131.9156646728516 325.5891723632813 C 142.7174072265625 327.7994995117188 153.8352813720703 328.9202575683594 164.96044921875 328.9202575683594 C 176.0856170654297 328.9202575683594 187.2034912109375 327.7994995117188 198.0052337646484 325.5891723632813 C 208.531982421875 323.4350891113281 218.8864440917969 320.2208862304688 228.7809448242188 316.035888671875 C 238.4960632324219 311.9266967773438 247.8663635253906 306.8406677246094 256.6316223144531 300.9190368652344 C 265.3137817382813 295.053466796875 273.4782104492188 288.3171997070313 280.8979797363281 280.8974609375 C 288.3177795410156 273.4776611328125 295.0540161132813 265.3132934570313 300.9196166992188 256.631103515625 C 306.8412780761719 247.8658752441406 311.9273376464844 238.4955902099609 316.0364990234375 228.7805023193359 C 320.2215270996094 218.8860015869141 323.4356994628906 208.5315856933594 325.5897827148438 198.0048828125 C 327.8001708984375 187.203125 328.9208984375 176.0852508544922 328.9208984375 164.9601287841797 C 328.9208984375 153.8350067138672 327.8001708984375 142.7171325683594 325.5897827148438 131.9153747558594 C 323.4356994628906 121.388671875 320.2215270996094 111.0342559814453 316.0364990234375 101.1397552490234 C 311.9273376464844 91.42466735839844 306.8412780761719 82.05438232421875 300.9196166992188 73.2891845703125 C 295.0540161132813 64.60696411132813 288.3177795410156 56.44259643554688 280.8979797363281 49.02279663085938 C 273.4782104492188 41.60305786132813 265.3137817382813 34.86679077148438 256.6316223144531 29.001220703125 C 247.8663635253906 23.07958984375 238.4960632324219 17.9935302734375 228.7809448242188 13.88436889648438 C 218.8864440917969 9.699371337890625 208.531982421875 6.48516845703125 198.0052337646484 4.331085205078125 C 187.2034912109375 2.120758056640625 176.0856170654297 1 164.96044921875 1 M 164.96044921875 0 C 256.0655822753906 0 329.9208984375 73.85516357421875 329.9208984375 164.9601287841797 C 329.9208984375 256.0650939941406 256.0655822753906 329.9202575683594 164.96044921875 329.9202575683594 C 73.85531616210938 329.9202575683594 0 256.0650939941406 0 164.9601287841797 C 0 73.85516357421875 73.85531616210938 0 164.96044921875 0 Z" stroke="none" fill="#fff"/>
      </g>
      <path id="Path_2389" data-name="Path 2389" d="M154.986,0A154.986,154.986,0,1,0,309.972,154.986,154.986,154.986,0,0,0,154.986,0Z" transform="translate(22657.209 16985.525)" opacity="0.67" fill="url(#linear-gradient-3)"/>
      <path id="Path_2421" data-name="Path 2421" d="M72.04,0h0ZM37.845,29.126h0Zm-20.2,29.125h0ZM5.68,87.376h0ZM.054,116.5h0ZM0,145.627H0Zm5.509,29.125h0Zm11.822,29.126h0ZM37.337,233h0Zm33.784,29.126h0Z" transform="translate(22967.832 17271.867) rotate(180)" fill="rgba(0,0,0,0)" stroke="#fff" stroke-width="8" opacity="0.02"/>
      <path id="Path_2425" data-name="Path 2425" d="M0,0H596V322H0Z" transform="translate(22453.143 17140.998)" fill="url(#linear-gradient-8)"/>
    </g>
    <path id="Subtraction_70" data-name="Subtraction 70" d="M554.458,247.625H223.612C170.244,236.382,125.964,224.806,92,213.216V21.918c2.447-.734,4.96-1.4,7.471-1.967a102.5,102.5,0,0,1,22.7-2.614,100.46,100.46,0,0,1,23.756,2.884,136.141,136.141,0,0,1,22.639,7.753c14.907,6.491,29.624,15.332,45.206,24.691C240.9,68.96,271.65,87.428,310.8,97.4c26.246,6.684,48.056,9.8,68.639,9.8,8.468,0,15.9-.5,23.4-1.067l1.19-.089c6.683-.5,13-.977,19.582-.977a115.2,115.2,0,0,1,21.808,2,161.908,161.908,0,0,1,27.416,7.974c9.776,4.4,44.416,16.923,84.525,31.427l.022.008c70.1,25.347,157.334,56.893,166.48,64.649,1.242,1.054,1.751,1.919,1.512,2.57-.414,1.126-2.99,1.674-7.877,1.674-10.109,0-28.487-2.319-49.767-5l-.373-.047-1.324-.167-.121-.015c-2.281-.288-4.64-.585-6.983-.878-23.65-2.957-50.469-6.112-69.428-6.112-8.179,0-14.482.6-18.734,1.779a14.032,14.032,0,0,0-5.257,2.466,4.768,4.768,0,0,0-1.861,3.733,76.637,76.637,0,0,1-9.185,36.5Z" transform="translate(22352 17259.375)" fill="url(#linear-gradient-9)"/>
    <path id="Subtraction_71" data-name="Subtraction 71" d="M167.328,202.5H51.672A110.036,110.036,0,0,1,14.2,163.469,109,109,0,0,1,0,109.5,110.308,110.308,0,0,1,2.225,87.432,108.9,108.9,0,0,1,18.7,48.278,109.82,109.82,0,0,1,66.878,8.605a108.948,108.948,0,0,1,20.554-6.38,110.566,110.566,0,0,1,44.136,0A108.9,108.9,0,0,1,170.722,18.7a109.819,109.819,0,0,1,39.672,48.177,108.948,108.948,0,0,1,6.38,20.554,110.423,110.423,0,0,1-1.486,50.439,109.336,109.336,0,0,1-26.8,47.463A110.062,110.062,0,0,1,167.328,202.5Z" transform="translate(22906.643 17304.498)" fill="url(#linear-gradient-9)"/>
    <path id="Subtraction_75" data-name="Subtraction 75" d="M123.2,140.5H36.081A77.416,77.416,0,0,1,15,118.854V35.146c.262-.4.529-.807.793-1.2a77.222,77.222,0,0,1,33.878-27.9,76.9,76.9,0,0,1,73.023,7.1,77.221,77.221,0,0,1,27.9,33.878A76.524,76.524,0,0,1,156.642,77,77.052,77.052,0,0,1,123.2,140.5Z" transform="translate(22429 17366.498)" fill="url(#linear-gradient-9)"/>
    <ellipse id="Ellipse_5034" data-name="Ellipse 5034" cx="47.283" cy="47.283" rx="47.283" ry="47.283" transform="matrix(0.966, 0.259, -0.259, 0.966, 23245.047, 17382.375)" fill="url(#linear-gradient-3)"/>
    <path id="Subtraction_73" data-name="Subtraction 73" d="M276.908,106.923H0c7.5-4.4,18.539-14.4,32.513-27.047,8.56-7.75,18.261-16.533,28.539-25.245,9.071-7.688,17.322-14.249,25.224-20.058a271.548,271.548,0,0,1,26.713-17.5A153.677,153.677,0,0,1,140.26,4.7a99.545,99.545,0,0,1,13.552-3.468A76.3,76.3,0,0,1,167.153,0a61.028,61.028,0,0,1,19.239,3.019A221.826,221.826,0,0,1,230.7,23.04a163.227,163.227,0,0,1,32.542,25.336A131.932,131.932,0,0,1,276.908,64.7v42.224Z" transform="translate(23456.592 17400.578)" fill="url(#linear-gradient-9)"/>
  </g>
</svg>
