<svg xmlns="http://www.w3.org/2000/svg" xmlns:xlink="http://www.w3.org/1999/xlink" width="322.037" height="848.502" viewBox="0 0 322.037 848.502">
  <defs>
    <linearGradient id="linear-gradient" x1="0.5" x2="0.5" y2="1" gradientUnits="objectBoundingBox">
      <stop offset="0" stop-color="#fff" stop-opacity="0.031"/>
      <stop offset="1" stop-color="#fff" stop-opacity="0"/>
    </linearGradient>
    <linearGradient id="linear-gradient-3" y1="1" y2="0" xlink:href="#linear-gradient"/>
    <linearGradient id="linear-gradient-4" x1="0.5" x2="0.5" y2="1" gradientUnits="objectBoundingBox">
      <stop offset="0" stop-color="#fff" stop-opacity="0.039"/>
      <stop offset="1" stop-color="#fff" stop-opacity="0"/>
    </linearGradient>
    <linearGradient id="linear-gradient-5" x1="0.5" y1="1" x2="0.5" gradientUnits="objectBoundingBox">
      <stop offset="0" stop-color="#fff" stop-opacity="0.051"/>
      <stop offset="1" stop-color="#fff" stop-opacity="0"/>
    </linearGradient>
    <linearGradient id="linear-gradient-9" y1="1" y2="0" xlink:href="#linear-gradient-4"/>
  </defs>
  <g id="Group_7632" data-name="Group 7632" transform="translate(-22117.5 -16706.998)">
    <rect id="Rectangle_115" data-name="Rectangle 115" width="320" height="847.999" transform="translate(22118.143 16706.998)" fill="#505cfd"/>
    <g id="Subtraction_19" data-name="Subtraction 19" transform="translate(22273 16956)" fill="none" opacity="0.07">
      <path d="M165,329.92h-.04a166.184,166.184,0,0,1-33.245-3.351,164.057,164.057,0,0,1-58.986-24.821A165.441,165.441,0,0,1,12.963,229.17a164.133,164.133,0,0,1-9.612-30.965,166.571,166.571,0,0,1,0-66.491A164.057,164.057,0,0,1,28.173,72.729,165.441,165.441,0,0,1,100.75,12.963a164.133,164.133,0,0,1,30.965-9.612A166.183,166.183,0,0,1,164.96,0H165Z" stroke="none"/>
      <path d="M 163.9997711181641 328.9174194335938 L 163.9996948242188 1.002816438674927 C 153.1951904296875 1.06537663936615 142.4067077636719 2.184321880340576 131.915283203125 4.331113338470459 C 121.3885269165039 6.485238552093506 111.0341110229492 9.699404716491699 101.1396484375 13.88436317443848 C 91.42448425292969 17.99348831176758 82.05423736572266 23.07953071594238 73.28907012939453 29.00115585327148 C 64.60694122314453 34.86669540405273 56.44256591796875 41.6029052734375 49.02273559570313 49.02273941040039 C 41.60290145874023 56.44257354736328 34.86669158935547 64.60694885253906 29.00115013122559 73.28907012939453 C 23.07952499389648 82.05423736572266 17.99348449707031 91.42449188232422 13.88435935974121 101.1396560668945 C 9.699400901794434 111.0341110229492 6.485234260559082 121.3885269165039 4.331109046936035 131.915283203125 C 2.120775699615479 142.7172393798828 1.000025868415833 153.8351593017578 1.000025868415833 164.9601135253906 C 1.000025868415833 176.0850677490234 2.120775699615479 187.2029876708984 4.331109046936035 198.0049438476563 C 6.485234260559082 208.5316925048828 9.699400901794434 218.8861083984375 13.88435935974121 228.7805786132813 C 17.99348449707031 238.4957427978516 23.07952499389648 247.8659820556641 29.00115013122559 256.6311645507813 C 34.86669158935547 265.3132934570313 41.60290145874023 273.4776611328125 49.02273559570313 280.8974914550781 C 56.44256591796875 288.3173217773438 64.60694122314453 295.0535278320313 73.28907012939453 300.9190673828125 C 82.05423736572266 306.8406982421875 91.42448425292969 311.9267272949219 101.1396484375 316.0358581542969 C 111.0341110229492 320.2208251953125 121.3885269165039 323.4349975585938 131.915283203125 325.589111328125 C 142.4067077636719 327.7359008789063 153.1952819824219 328.8548583984375 163.9997711181641 328.9174194335938 M 164.9997711181641 329.9201965332031 L 164.9977416992188 329.9201965332031 L 164.9977416992188 329.919189453125 L 164.9600677490234 329.9201965332031 C 153.7678527832031 329.9201965332031 142.58251953125 328.7926025390625 131.7148132324219 326.5688171386719 C 121.1234436035156 324.4014892578125 110.7053985595703 321.1675720214844 100.7501068115234 316.9568786621094 C 90.97548675537109 312.8225708007813 81.54794311523438 307.7054748535156 72.72927856445313 301.7477111816406 C 63.99440002441406 295.8465270996094 55.78048324584961 289.0694580078125 48.31560897827148 281.6046142578125 C 40.85077667236328 274.1397399902344 34.07369232177734 265.9258117675781 28.17252540588379 257.1909484863281 C 22.21473503112793 248.3722839355469 17.0976505279541 238.9447326660156 12.96335887908936 229.1701202392578 C 8.752651214599609 219.2148284912109 5.518733978271484 208.7967834472656 3.351400852203369 198.2053985595703 C 1.127609133720398 187.3376922607422 2.58178715739632e-05 176.1523590087891 2.58178715739632e-05 164.9601135253906 C 2.58178715739632e-05 153.7678680419922 1.127609133720398 142.5825347900391 3.351400852203369 131.7148284912109 C 5.518733978271484 121.1234436035156 8.752651214599609 110.7054061889648 12.96335887908936 100.750114440918 C 17.0976505279541 90.97548675537109 22.21473503112793 81.54794311523438 28.17252540588379 72.72927856445313 C 34.07369232177734 63.99440383911133 40.85077667236328 55.78048706054688 48.31560897827148 48.31561279296875 C 55.78048324584961 40.85078048706055 63.99440002441406 34.07369613647461 72.72927856445313 28.17253112792969 C 81.54794311523438 22.2147388458252 90.97548675537109 17.09765434265137 100.7501068115234 12.96336364746094 C 110.7053985595703 8.752655029296875 121.1234436035156 5.518738746643066 131.7148132324219 3.351405143737793 C 142.58251953125 1.127613544464111 153.7678527832031 3.019205723830964e-05 164.9600677490234 3.019205723830964e-05 L 164.9996948242188 3.019205723830964e-05 L 164.9997711181641 329.9201965332031 Z" stroke="none" fill="#fff"/>
    </g>
    <path id="Subtraction_18" data-name="Subtraction 18" d="M155.5,321.97h-.512a156.129,156.129,0,0,1-31.235-3.149A154.138,154.138,0,0,1,68.332,295.5,155.437,155.437,0,0,1,12.18,227.312a154.2,154.2,0,0,1-9.031-29.092,156.495,156.495,0,0,1,0-62.47A154.137,154.137,0,0,1,26.469,80.33a155.439,155.439,0,0,1,68.19-56.152,154.2,154.2,0,0,1,29.092-9.031A156.129,156.129,0,0,1,154.986,12h.512v309.97Z" transform="translate(22283.002 16953)" fill="url(#linear-gradient)"/>
    <path id="Path_2386" data-name="Path 2386" d="M153.04,0h0Zm-.195,29.126h0Zm-.2,29.125h0Zm.038,29.126h0Zm.267,29.125h0ZM153,145.627h0Zm.509,29.125h0Zm-.178,29.126h0ZM153.337,233h0Zm-.014,29.126h0Z" transform="translate(22592.178 17251.34) rotate(180)" fill="#fff" stroke="#fff" stroke-width="8" opacity="0.03"/>
    <ellipse id="Ellipse_808" data-name="Ellipse 808" cx="81.783" cy="81.783" rx="81.783" ry="81.783" transform="translate(22120.07 17126.965) rotate(-60)" fill="url(#linear-gradient-3)"/>
    <g id="Subtraction_24" data-name="Subtraction 24" transform="translate(22095 16707)" fill="none" opacity="0.03">
      <path d="M74.326,106.654A60.095,60.095,0,0,1,23,77.726V15.661A60.653,60.653,0,0,1,36.7,0h75.246a60.847,60.847,0,0,1,4.775,4.3,59.91,59.91,0,0,1,0,84.8,59.77,59.77,0,0,1-42.4,17.562Z" stroke="none"/>
      <path d="M 74.32559967041016 105.6536026000977 C 81.98421478271484 105.6536026000977 89.44938659667969 104.2011871337891 96.51364898681641 101.3367233276367 C 103.8265533447266 98.37047576904297 110.3886337280273 94.01280212402344 116.0175094604492 88.38480377197266 C 121.6464309692383 82.75584411621094 126.0040817260742 76.19381713867188 128.9694213867188 68.88098907470703 C 131.8338928222656 61.81753921508789 133.2863159179688 54.35267639160156 133.2863159179688 46.69380187988281 C 133.2863159179688 39.0349235534668 131.8338928222656 31.5700626373291 128.9694061279297 24.50657081604004 C 126.0035095214844 17.19230842590332 121.645881652832 10.63030910491943 116.0175094604492 5.002816677093506 C 114.6116256713867 3.596944570541382 113.1247863769531 2.251544713973999 111.5941314697266 1.000001311302185 L 37.05794143676758 1.000001311302185 C 35.52407455444336 2.253944873809814 34.03731536865234 3.599293231964111 32.63457107543945 5.002878189086914 C 29.31682205200195 8.320069313049316 26.41303443908691 11.99886322021484 24.00040245056152 15.94099903106689 L 24.00040245056152 77.44556427001953 C 26.41284561157227 81.38770294189453 29.31667327880859 85.06687164306641 32.6346321105957 88.38480377197266 C 38.2620964050293 94.01226043701172 44.82414245605469 98.36992645263672 52.13837051391602 101.3366928100586 C 59.20272445678711 104.2011871337891 66.66758728027344 105.6536026000977 74.32559967041016 105.6536026000977 M 74.32559967041016 106.6536026000977 C 66.53815460205078 106.6536026000977 58.94688034057617 105.1765213012695 51.76260375976563 102.2634048461914 C 44.32357025146484 99.24601745605469 37.65009307861328 94.81447601318359 31.92752647399902 89.09191131591797 C 28.48618698120117 85.65060424804688 25.48267936706543 81.8265380859375 23.00040245056152 77.7259521484375 L 23.00040245056152 15.66060161590576 C 25.48309516906738 11.55963230133057 28.48655700683594 7.736108779907227 31.92752647399902 4.295709133148193 C 33.43806457519531 2.784262895584106 35.04472732543945 1.338970541954041 36.70291137695313 1.300048779739882e-06 L 111.9492034912109 1.300048779739882e-06 C 113.6043090820313 1.336678266525269 115.2107696533203 2.781878232955933 116.7246170043945 4.295709133148193 C 122.448112487793 10.01830863952637 126.8796463012695 16.69181632995605 129.8961029052734 24.13080215454102 C 132.8092346191406 31.31420135498047 134.2863159179688 38.90549468994141 134.2863159179688 46.69380187988281 C 134.2863159179688 54.48212432861328 132.8092346191406 62.07340240478516 129.8961029052734 69.25679779052734 C 126.8802337646484 76.69429016113281 122.4487075805664 83.36778259277344 116.7246170043945 89.09191131591797 C 111.0005416870117 94.81509399414063 104.327033996582 99.24662017822266 96.8895263671875 102.2634048461914 C 89.70523071289063 105.1765213012695 82.11363220214844 106.6536026000977 74.32559967041016 106.6536026000977 Z" stroke="none" fill="#fff"/>
    </g>
    <path id="Subtraction_28" data-name="Subtraction 28" d="M338.5,252.211c-57.3-9.262-140.131-24.362-209.39-43.7-34.1-9.523-61.508-19.162-81.463-28.652-10.922-5.193-19.779-10.428-26.327-15.558-1.168-.915-2.286-1.846-3.321-2.766V66.343c1.57-3.261,3.282-6.476,5.088-9.556A118.729,118.729,0,0,1,52.147,23.14,108.691,108.691,0,0,1,95.47,2.613,102.513,102.513,0,0,1,118.174,0a100.424,100.424,0,0,1,23.755,2.885,136.171,136.171,0,0,1,22.638,7.752c14.9,6.488,29.615,15.327,45.195,24.684l.012.007C236.9,51.622,267.65,70.09,306.8,80.06a319.84,319.84,0,0,0,31.7,6.5V252.21h0Z" transform="translate(22100 17256.713)" fill="url(#linear-gradient-4)"/>
    <path id="Subtraction_31" data-name="Subtraction 31" d="M66.449,120.778h0a54.31,54.31,0,0,1-33.317-97.14,54.259,54.259,0,0,1,49.26-9.065,54.493,54.493,0,0,1,14.3,6.8,53.931,53.931,0,0,1,20.089,24.66v40.89A54.513,54.513,0,0,1,102.734,106.9a53.985,53.985,0,0,1-10.207,7.221,54.711,54.711,0,0,1-26.078,6.655Z" transform="translate(22321.227 17379.113)" fill="url(#linear-gradient-5)"/>
    <g id="Group_7631" data-name="Group 7631">
      <path id="Subtraction_27" data-name="Subtraction 27" d="M310.275,125.7H89V16.191A155.038,155.038,0,0,1,310.275,125.7Z" transform="translate(22029 17429.803)" fill="url(#linear-gradient)"/>
      <path id="Subtraction_30" data-name="Subtraction 30" d="M306.448,107H86.5V99H304.093c.841,2.6,1.633,5.286,2.355,7.994ZM295.537,78H86.5V70H291.272c1.5,2.623,2.934,5.313,4.263,7.994h0ZM276.864,49H86.5V41H269.883c2.405,2.572,4.753,5.263,6.98,8v0h0ZM245.772,20H86.5V12H233.171c4.268,2.428,8.506,5.119,12.6,8l0,0h0Z" transform="translate(22031 17439)" fill="url(#linear-gradient)"/>
    </g>
    <ellipse id="Ellipse_815" data-name="Ellipse 815" cx="27.783" cy="27.783" rx="27.783" ry="27.783" transform="matrix(0.966, -0.259, 0.259, 0.966, 22208.572, 16734.006)" fill="url(#linear-gradient-3)"/>
    <path id="Subtraction_22" data-name="Subtraction 22" d="M280.777,178.128h0a178.469,178.469,0,0,1-17.607-6.077,290.2,290.2,0,0,1-45.243-23.569c-14.126-8.858-26.155-17.706-33.758-23.568-7.786-6-12.71-10.24-13.245-10.7l-.011-.009c-.614.066-15.281,1.608-35.537,1.608A337.909,337.909,0,0,1,88.8,112.8c-18.616-2.609-34.625-6.888-47.582-12.716C35.2,97.373,17.007,90.685,0,84.5H280.777Z" transform="translate(22157.723 16623)" fill="url(#linear-gradient-9)"/>
    <path id="Subtraction_29" data-name="Subtraction 29" d="M80.643,154A77.074,77.074,0,0,1,16,118.854V35.145a77.384,77.384,0,0,1,27.308-25.5,76.9,76.9,0,0,1,80.386,3.51,77.224,77.224,0,0,1,27.9,33.877,76.9,76.9,0,0,1-7.1,73.023,77.224,77.224,0,0,1-33.877,27.9A76.516,76.516,0,0,1,80.643,154Z" transform="translate(22102 17346.498)" fill="url(#linear-gradient-4)"/>
  </g>
</svg>
